<svg xmlns="http://www.w3.org/2000/svg" version="1.1" x="0" y="0" height="96" width="24" viewBox="-587 -17 24 96" enable-background="new -587 -17 24 96" xml:space="preserve"><path fill="#FEC835" d="M-577.9-3.7h-0.7v2.3h0.7c0.9 0 1.2-0.3 1.2-1v-0.2C-576.8-3.4-577.1-3.7-577.9-3.7zM-572.3-3.7h-0.9v2.1h0.9c0.8 0 1.1-0.3 1.1-1v-0.2C-571.2-3.5-571.5-3.7-572.3-3.7zM-571.7-9.4l3.5-7.6h-13.7l3.5 7.7c-3 1.3-5.1 4.3-5.1 7.8 0 4.7 3.8 8.5 8.5 8.5 4.7 0 8.5-3.8 8.5-8.5C-566.5-5-568.6-8.1-571.7-9.4zM-570.5-15.5l-1.8 4 -1.8-4H-570.5zM-575.3-2.4c0 1.4-0.9 2.2-2.5 2.2h-0.8v2.1c0 0.1-0.1 0.2-0.2 0.2h-1.1c-0.1 0-0.2-0.1-0.2-0.2V-5h2.3c1.6 0 2.5 0.8 2.5 2.2V-2.4zM-577-9.8c0 0 0-0.1 0-0.1l-2.5-5.6h3.7l2.6 5.6c-0.6-0.1-1.1-0.2-1.7-0.2C-575.7-10-576.3-10-577-9.8zM-569.6 2C-569.6 2.1-569.7 2.1-569.6 2l-1.4 0.1c-0.1 0-0.2 0-0.2-0.1l-1.2-2.4h-0.8v2.3c0 0.1-0.1 0.2-0.2 0.2h-1.1c-0.1 0-0.2-0.1-0.2-0.2V-5h2.6c1.5 0 2.3 0.7 2.3 2v0.5c0 0.9-0.4 1.5-1.1 1.8l1.3 2.5C-569.6 1.9-569.6 2-569.6 2z"/><path fill="#666666" d="M-577.9 20.3h-0.7v2.3h0.7c0.9 0 1.2-0.3 1.2-1v-0.2C-576.8 20.6-577.1 20.3-577.9 20.3zM-572.3 20.3h-0.9v2.1h0.9c0.8 0 1.1-0.3 1.1-1v-0.2C-571.2 20.5-571.5 20.3-572.3 20.3zM-571.7 14.6l3.5-7.6h-13.7l3.5 7.7c-3 1.3-5.1 4.3-5.1 7.8 0 4.7 3.8 8.5 8.5 8.5 4.7 0 8.5-3.8 8.5-8.5C-566.5 19-568.6 15.9-571.7 14.6zM-570.5 8.5l-1.8 4 -1.8-4H-570.5zM-575.3 21.6c0 1.4-0.9 2.2-2.5 2.2h-0.8v2.1c0 0.1-0.1 0.2-0.2 0.2h-1.1c-0.1 0-0.2-0.1-0.2-0.2V19h2.3c1.6 0 2.5 0.8 2.5 2.2V21.6zM-577 14.2c0 0 0-0.1 0-0.1l-2.5-5.6h3.7l2.6 5.6c-0.6-0.1-1.1-0.2-1.7-0.2C-575.7 14-576.3 14-577 14.2zM-569.6 26C-569.6 26.1-569.7 26.1-569.6 26l-1.4 0.1c-0.1 0-0.2 0-0.2-0.1l-1.2-2.4h-0.8v2.3c0 0.1-0.1 0.2-0.2 0.2h-1.1c-0.1 0-0.2-0.1-0.2-0.2V19h2.6c1.5 0 2.3 0.7 2.3 2v0.5c0 0.9-0.4 1.5-1.1 1.8l1.3 2.5C-569.6 25.9-569.6 26-569.6 26z"/><path fill="#FFFFFF" d="M-577.9 44.3h-0.7v2.3h0.7c0.9 0 1.2-0.3 1.2-1v-0.2C-576.8 44.6-577.1 44.3-577.9 44.3zM-572.3 44.3h-0.9v2.1h0.9c0.8 0 1.1-0.3 1.1-1v-0.2C-571.2 44.5-571.5 44.3-572.3 44.3zM-571.7 38.6l3.5-7.6h-13.7l3.5 7.7c-3 1.3-5.1 4.3-5.1 7.8 0 4.7 3.8 8.5 8.5 8.5 4.7 0 8.5-3.8 8.5-8.5C-566.5 43-568.6 39.9-571.7 38.6zM-570.5 32.5l-1.8 4 -1.8-4H-570.5zM-575.3 45.6c0 1.4-0.9 2.2-2.5 2.2h-0.8v2.1c0 0.1-0.1 0.2-0.2 0.2h-1.1c-0.1 0-0.2-0.1-0.2-0.2V43h2.3c1.6 0 2.5 0.8 2.5 2.2V45.6zM-577 38.2c0 0 0-0.1 0-0.1l-2.5-5.6h3.7l2.6 5.6c-0.6-0.1-1.1-0.2-1.7-0.2C-575.7 38-576.3 38-577 38.2zM-569.6 50C-569.6 50.1-569.7 50.1-569.6 50l-1.4 0.1c-0.1 0-0.2 0-0.2-0.1l-1.2-2.4h-0.8v2.3c0 0.1-0.1 0.2-0.2 0.2h-1.1c-0.1 0-0.2-0.1-0.2-0.2V43h2.6c1.5 0 2.3 0.7 2.3 2v0.5c0 0.9-0.4 1.5-1.1 1.8l1.3 2.5C-569.6 49.9-569.6 50-569.6 50z"/></svg>
